<svg width="19" height="22" viewBox="0 0 19 22" fill="none" xmlns="http://www.w3.org/2000/svg">
<path d="M18.3824 0.56504L15.4993 0.145203C15.4109 0.145203 15.3225 0.145205 15.3225 0.233371L14.1019 1.79936C14.0322 1.90152 14.0009 2.02492 14.0135 2.14783C14.0135 2.23599 13.9251 2.41233 13.841 2.32416L12.8771 2.06386C12.7045 2.06386 12.5278 2.06386 12.4562 2.23599L8.52508 7.27404C8.43669 7.36221 8.3483 7.36221 8.17573 7.36221L6.68998 6.66528C6.62693 6.62577 6.55399 6.60481 6.47954 6.60481C6.40508 6.60481 6.33214 6.62577 6.26909 6.66528L5.44414 7.19427C5.38146 7.23475 5.30837 7.25629 5.2337 7.25629C5.15902 7.25629 5.08594 7.23475 5.02325 7.19427L4.67392 7.02214C4.61704 6.99651 4.55544 6.98293 4.49304 6.9823C4.43063 6.98167 4.36877 6.99398 4.31139 7.01846C4.25401 7.04293 4.20235 7.07904 4.1597 7.12448C4.11704 7.16992 4.08433 7.22371 4.06362 7.28244L3.79845 8.49996C3.76697 8.62925 3.77545 8.76502 3.82278 8.88941C3.87011 9.0138 3.95407 9.12099 4.06362 9.1969L4.7623 9.61673L6.59318 10.7503L7.46864 11.2709C7.59153 11.3429 7.73435 11.3736 7.87605 11.3584C8.01776 11.3433 8.15085 11.2832 8.2557 11.1869L9.73725 9.87703C9.86483 9.80457 10.0124 9.77513 10.1581 9.79306L10.579 10.0534C10.7516 10.1415 10.9284 10.1415 10.9999 9.9652L11.7828 9.26827C11.8367 9.21419 11.9052 9.17703 11.98 9.16136C12.0548 9.14569 12.1326 9.15221 12.2037 9.1801L13.3401 9.7049C13.4277 9.73356 13.521 9.74051 13.612 9.72515C13.7029 9.70978 13.7887 9.67257 13.862 9.61673L14.3881 8.9198L18.3192 3.88175C18.4918 3.61726 18.4034 3.26879 18.0541 3.26879L17.2291 3.08406C17.0524 3.08406 16.9682 2.82377 17.0524 2.66423L18.4497 1.01007C18.6433 0.833735 18.5549 0.56504 18.3824 0.56504Z" fill="white"/>
<path d="M5.27998 10.7671C5.19159 10.6789 5.10742 10.7671 5.10742 10.8553L5.52831 11.9846V12.2491L5.17897 13.727C5.17298 13.7748 5.17781 13.8234 5.19311 13.8692C5.2084 13.915 5.23377 13.9567 5.26735 13.9915L6.31538 14.7724C6.36373 14.8146 6.42579 14.8379 6.49004 14.8379C6.5543 14.8379 6.61637 14.8146 6.66472 14.7724L7.80113 13.8151C7.83512 13.7817 7.87626 13.7564 7.92146 13.7411C7.96666 13.7259 8.01473 13.721 8.06208 13.727L9.28688 13.5548C9.37106 13.5548 9.37106 13.4667 9.28688 13.3785L5.27998 10.7671Z" fill="white"/>
<path d="M4.93058 14.5119C4.9158 14.4911 4.89624 14.4741 4.87354 14.4624C4.85084 14.4507 4.82566 14.4446 4.80011 14.4446C4.77455 14.4446 4.74937 14.4507 4.72667 14.4624C4.70397 14.4741 4.68441 14.4911 4.66963 14.5119L3.79417 14.9317C3.78275 14.9317 3.77145 14.934 3.76095 14.9385C3.75045 14.943 3.74099 14.9495 3.73312 14.9578C3.72524 14.966 3.71912 14.9758 3.71515 14.9865C3.71117 14.9972 3.70943 15.0085 3.71 15.0199L1.78651 19.7221H1.8749L2.29579 19.5499V19.6339L0.898438 21.901C0.898438 21.9892 0.89843 21.9892 0.982608 21.9892L5.87338 17.0225C5.96176 17.0225 5.96177 16.9344 5.96177 16.8462L6.05016 15.5405C6.05016 15.4523 6.05016 15.3684 5.96177 15.3684L4.93058 14.5119Z" fill="white"/>


</svg>
